<?xml version='1.0' encoding='utf-8'?>
<svg xmlns="http://www.w3.org/2000/svg" version="1.1" width="600px" height="976px" viewBox="0 0 600 976"> <g id="layer1"> <g> <g style="fill:rgb(0,0,0); fill-opacity:1.0; stroke-linejoin: miter"> <path d="M262.4942,244.36823C262.4092,244.50983,261.81433,244.65143,261.21945,244.65143C260.62457,244.65143,260.0297,244.76477,259.94473,244.93475C259.8597,245.07635,259.5198,245.21802,259.17987,245.21802C258.415,245.21802,255.18568,246.9743,253.57101,248.2774C252.15463,249.41052,249.03859,252.46991,249.03859,252.72485C249.03859,252.80981,248.81197,253.1214,248.55702,253.43304C247.96214,254.05621,247.08398,255.81256,246.20583,258.10712C245.1577,260.82654,244.50616,265.01904,244.50616,269.04156C244.50616,271.4494,244.47784,271.50604,243.51471,272.52582L242.52324,273.57397L242.52324,276.46338C242.55156,279.7494,243.34474,284.82,244.08125,286.40643C244.39285,287.05792,244.95941,287.65277,245.49763,287.90778C246.46077,288.36102,246.71573,288.89923,247.36726,291.95856C247.53723,292.8084,247.99046,294.33813,248.35873,295.3579C248.98193,297.1709,249.60515,300.71185,249.60515,302.55316C249.60515,303.2613,249.32187,303.79956,248.55702,304.64935C247.96214,305.27258,246.8007,306.57562,245.95088,307.53876C244.36453,309.35175,241.07852,311.7879,240.20036,311.7879C239.94542,311.7879,239.66214,311.90125,239.57716,312.0429C239.49219,312.1845,239.06726,312.3828,238.64235,312.49615C238.1891,312.58112,237.08434,313.03436,236.14952,313.4593C235.2147,313.91254,233.88332,314.5074,233.17513,314.7907C232.46693,315.10223,231.33382,315.6405,230.62564,316.00873C229.91745,316.377,228.27444,316.97186,226.94304,317.34015C223.85533,318.21832,222.35397,318.75653,220.45601,319.60638C219.63452,320.003,218.30312,320.48456,217.48161,320.71112C214.84715,321.41937,214.25227,321.64594,213.00584,322.3542C211.73111,323.11896,209.94647,323.77057,208.24681,324.1104C206.77377,324.42206,204.53589,325.64014,203.88435,326.49C203.57275,326.88654,202.94954,327.5948,202.4963,328.04803C201.4765,329.09613,200.82497,330.42755,200.0318,333.03363C199.69186,334.19513,199.29527,335.41315,199.18198,335.7248C198.27548,337.9627,196.00928,345.2995,195.49937,347.62238C195.15944,349.18042,194.79118,350.71008,194.64955,351.02167C194.5079,351.3333,194.05467,352.80634,193.62976,354.27936C193.23317,355.75238,192.66661,357.67865,192.38335,358.5285C192.10007,359.37836,191.67516,360.85138,191.4202,361.7862C191.16525,362.721,190.82532,363.88245,190.68369,364.364C190.51372,364.84558,190.4004,365.4405,190.4004,365.69537C190.4004,365.9787,190.2871,366.40363,190.14546,366.6869C190.00381,366.94183,189.69221,368.24493,189.43727,369.5763C188.7574,373.00397,187.39767,379.66095,186.6045,383.45685C186.20792,385.24152,185.83966,387.1678,185.75467,387.706C185.52806,389.0374,185.15979,390.62372,184.59325,392.66327C183.74341,395.80768,183.57344,396.8841,183.17686,402.86127C182.32703,415.80695,182.35536,426.68475,183.29018,432.6053C183.85672,436.08954,184.90485,440.19708,185.61304,441.58514C185.75467,441.8684,185.86798,442.34998,185.86798,442.63324C185.86798,442.9449,185.9813,443.2564,186.0946,443.34143C186.32123,443.4831,186.6045,444.47455,187.68095,448.752C188.87071,453.62433,189.35228,455.09735,190.54204,457.81683C190.76866,458.27008,190.99529,459.11993,191.1086,459.65814C191.19357,460.19635,191.39188,460.96124,191.50519,461.3578C191.64682,461.7544,191.90176,462.6325,192.10007,463.34076C192.29836,464.04892,192.86491,465.7486,193.3748,467.16498C194.84784,471.27246,195.89597,474.8701,196.66081,478.41104C196.8591,479.3175,197.08572,480.05405,197.19904,480.05405C197.42566,480.05405,198.04886,483.08508,198.04886,484.18988C198.04886,484.67145,198.24716,485.71957,198.47379,486.51273C198.84204,487.73083,199.04033,487.98578,199.55023,487.98578C199.91849,487.98578,200.3434,487.84412,200.51337,487.67416C201.07993,487.1076,202.01472,488.24072,202.01472,489.4588C202.01472,490.05368,202.12804,490.76187,202.26968,491.04517C202.41132,491.3001,202.66626,492.03662,202.86456,492.65982C203.06285,493.28302,203.37445,494.1612,203.57275,494.64276C203.77104,495.096,204.08264,495.94583,204.28094,496.48407C205.58401,500.1383,206.6888,501.583,208.16182,501.583C208.4451,501.583,209.12497,501.9513,209.69151,502.40454C210.65466,503.1977,211.98605,503.76425,215.81029,505.039C217.50995,505.60553,217.53827,505.63388,217.70824,506.79532C217.79321,507.41852,217.99152,508.7216,218.13315,509.6564C218.2748,510.59122,218.52974,512.23425,218.6997,513.339C219.12462,516.0868,219.46455,518.0697,220.0311,520.70416C220.65431,523.7352,220.88094,525.97314,221.41916,533.8765C221.81573,540.1086,222.3823,544.1311,223.00551,545.2642C223.14714,545.5475,223.26045,545.9158,223.26045,546.1141C223.26045,546.3124,223.7137,547.64374,224.28024,549.0318L225.30003,551.5813L225.27171,562.6857C225.24338,569.96594,225.32837,573.8468,225.52666,573.9601C225.6683,574.0451,225.80994,574.44165,225.80994,574.80994C225.80994,575.1782,225.95157,575.57477,226.09322,575.6598C226.71642,576.028,226.46147,576.84955,224.8468,579.9656C224.45021,580.7304,223.91199,582.7134,223.34543,585.4328C223.28877,585.8294,223.11882,586.39594,222.97717,586.7075C222.86386,587.01917,222.60892,587.64233,222.43895,588.06726C222.26898,588.4922,222.12735,589.7953,222.12735,590.95667C222.12735,592.8547,222.24066,593.39294,223.00551,595.2058C223.28877,595.8291,223.54373,617.21643,223.62871,646.19556C223.68536,660.2744,223.79868,665.6283,224.0253,666.0532C224.22359,666.3932,224.81847,668.0362,225.38503,669.73584C225.95157,671.43555,226.57478,673.0785,226.77307,673.39014C226.97137,673.7017,227.22632,674.57983,227.33963,675.3164C227.53792,676.61945,227.5096,676.70447,226.46147,677.6959C225.8666,678.23413,224.90346,679.02734,224.3369,679.39557C223.74202,679.7921,223.26045,680.21704,223.26045,680.3587C223.26045,680.47205,222.55226,681.35016,221.70244,682.25665C220.8526,683.19147,220.14441,684.1263,220.14441,684.3812C220.14441,684.60785,219.94612,684.94775,219.7195,685.1461C219.49287,685.34436,219.29459,685.6843,219.29459,685.88257C219.29459,686.10925,219.18127,686.2792,219.06796,686.2792C218.92633,686.2792,218.64305,686.61914,218.41643,687.04407C218.21814,687.49725,217.62326,688.46045,217.11336,689.2252C216.60345,689.9618,216.17854,690.8683,216.17854,691.2082C216.17854,691.5481,216.03691,691.973,215.86694,692.143C215.66864,692.3413,215.52701,693.2478,215.49869,694.1826C215.47035,695.68396,215.55534,695.9672,216.29185,696.73206C216.77342,697.2136,217.22667,697.6102,217.3683,697.6102C217.48161,697.6102,218.16148,697.9785,218.898,698.43176C221.47581,700.0747,225.04509,700.72626,231.47546,700.72626L236.12119,700.72626L238.1891,699.7065C239.32222,699.1399,240.25702,698.57336,240.25702,698.43176C240.25702,698.2901,240.42699,698.17676,240.62529,698.17676C240.93689,698.17676,242.63655,696.5055,243.65634,695.1741C244.19456,694.49414,244.90276,692.9928,245.356,691.5198C246.09251,689.1686,246.8007,688.0355,247.87715,687.55396C248.44371,687.2706,249.12357,686.9307,249.37852,686.8174C249.6618,686.6758,250.70992,686.5625,251.70139,686.5625C252.72118,686.5625,253.62767,686.4491,253.71265,686.2792C253.79764,686.1376,254.13756,685.9959,254.42084,685.9959C255.27066,685.9959,257.5085,684.6929,258.415,683.67303C258.86826,683.16315,259.37814,682.285,259.54813,681.74677C259.7181,681.2085,259.97305,680.61365,260.08633,680.47205C260.19968,680.302,260.36963,679.7355,260.45462,679.19727C260.53958,678.65906,260.7662,677.6393,260.9362,676.931C261.1345,676.2229,261.33276,675.00476,261.36108,674.2399C261.41776,673.4468,261.6727,669.5092,261.92764,665.4584C262.69247,653.4758,262.26758,636.3375,260.90787,623.1086C260.7662,621.7772,260.53958,619.5393,260.39795,618.15125C260.25632,616.73486,260.00137,614.2704,259.80307,612.6273C259.6331,610.9844,259.3215,607.98157,259.06656,605.97034C258.83994,603.9308,258.52835,601.0697,258.3867,599.5967C257.8768,594.3277,257.62186,592.6564,257.1686,591.63654C256.91367,591.07,256.772,590.53174,256.857,590.4468C257.1403,590.1635,257.59354,585.2628,257.70682,580.9004C257.7918,578.49255,257.96176,576.25464,258.0751,575.94305C258.8116,574.2151,258.98157,572.2038,259.26486,561.3543C259.6331,545.9158,260.228,535.6328,260.87952,532.3185C261.04947,531.5253,261.36108,529.8257,261.61606,528.49426C261.871,527.16284,262.2109,525.5199,262.3809,524.81165C262.52252,524.1035,262.77747,522.9704,262.9191,522.2622C263.68396,518.35297,263.8539,517.7298,264.05222,517.7298C264.16553,517.7298,264.42047,518.268,264.61877,518.91956C264.93036,520.0526,265.10034,520.9308,265.75186,524.81165C265.89352,525.6615,266.2051,527.44617,266.46005,528.7775C266.71503,530.10895,267.0266,532.14856,267.16824,533.30994C268.07474,540.39185,268.15973,540.9018,269.0662,543.64954C270.001,546.39734,270.31262,551.0714,270.02936,558.8048C269.91605,562.0908,270.02936,563.05396,270.7092,564.612C271.644,566.70825,271.78564,567.41644,272.15393,571.55225C272.57883,576.7645,272.66382,577.2178,273.59863,579.1157C274.1935,580.3622,274.2785,580.8721,274.1935,582.5151C274.10852,583.5632,273.82526,585.29114,273.54196,586.3676C273.0604,588.18054,273.0604,588.3789,273.51364,590.81506C273.93857,592.9114,273.9669,593.53455,273.6836,594.4127C273.48532,595.00757,273.23038,595.6024,273.11707,595.77246C272.6355,596.4523,272.3522,598.4635,271.729,606.39526C271.55905,608.34985,271.24744,611.6642,270.9925,613.7605C270.73755,615.8567,270.3976,619.05774,270.25595,620.8424C270.086,622.62695,269.85938,625.1199,269.71774,626.3662C269.60443,627.6127,269.3495,630.27545,269.1795,632.31506C268.92456,635.6294,268.58463,638.6887,268.1314,642.37134C268.04642,643.0796,267.87643,646.3939,267.7348,649.7366C267.59317,653.0792,267.36655,657.1017,267.2249,658.6598C266.94162,661.5209,267.08328,665.23175,267.45154,665.74164C267.56485,665.8833,267.7348,666.4498,267.8481,666.98804C267.9331,667.4979,268.41467,668.7727,268.89624,669.8208C269.3778,670.8406,269.8877,671.94543,270.001,672.25696C270.1993,672.82355,271.84232,676.3362,272.91876,678.63074C273.2587,679.31055,273.9669,680.4437,274.47678,681.0952C274.95834,681.7751,275.38327,682.4833,275.38327,682.6815C275.38327,682.85156,275.58157,683.2765,275.80817,683.5597C276.0348,683.87134,276.2331,684.29626,276.2331,684.5228C276.2331,684.8911,277.56448,686.36414,281.27542,690.1317C282.09692,690.98157,283.0034,691.66144,283.28668,691.66144C283.90988,691.66144,284.44812,693.44604,284.44812,695.514C284.44812,698.2334,285.89282,701.1512,288.1307,702.99243C288.78223,703.5307,289.49042,704.1256,289.6604,704.2672C290.05698,704.6355,293.9662,706.53345,295.07095,706.90173C296.99725,707.5532,303.3993,707.8365,306.23206,707.3833C307.45013,707.21326,307.98837,706.93005,308.86652,706.0519C309.4614,705.457,309.94296,704.7771,309.94296,704.55054C309.94296,704.32385,310.0846,704.1256,310.22626,704.1256C310.4812,704.1256,311.0194,703.1058,311.64264,701.43445C312.32248,699.6781,312.5491,698.40344,312.40747,697.2986C311.69928,691.85974,311.41602,690.9249,309.80133,688.40375C308.97983,687.15735,307.98837,685.74097,307.56345,685.2877C306.88358,684.55115,306.82693,684.26794,306.94025,683.0215C307.13852,680.98193,307.5068,678.9423,308.35663,675.23145C310.76447,664.89185,310.7928,663.73035,309.3764,650.3031C308.80988,645.0625,308.49826,636.8475,308.6682,631.3236C308.80988,625.88464,308.6682,622.2871,307.90338,613.3356C307.73343,611.29596,307.5068,605.5737,307.3935,600.58813C307.28018,595.1775,307.05356,590.95667,306.85526,590.1069C306.65695,589.3137,306.3737,587.86896,306.23206,586.8492C306.09042,585.8294,305.83545,584.46967,305.69382,583.7898C305.52386,583.13824,305.41055,582.28845,305.41055,581.89185C305.41055,581.52356,305.29724,581.127,305.12726,581.042C304.98563,580.95703,304.844,580.4188,304.844,579.8523C304.844,579.314,304.58905,578.49255,304.2491,578.0393C303.68256,577.2461,303.68256,577.0762,303.99417,575.2915C304.16412,574.2434,304.56073,572.88367,304.844,572.26044C305.7505,570.2775,305.9771,569.2577,305.9771,567.24646C305.9771,566.17004,306.11874,565.00854,306.31705,564.66864C306.6853,563.9888,306.7986,563.1673,307.9317,553.4226C308.10168,552.0912,308.41327,550.3065,308.69656,549.4567C309.68802,546.19904,309.7447,544.75433,309.85797,523.5086C309.94296,507.07858,310.02795,502.1496,310.31122,501.92297C310.4812,501.7813,311.3027,501.4414,312.06754,501.1581C313.96548,500.5349,315.8068,499.4301,316.00507,498.80692C316.26004,498.04208,315.94843,460.70624,315.6368,455.83392C315.49518,453.48273,315.15524,447.8172,314.87198,443.2281C314.44705,436.0329,314.30542,434.75812,313.85217,434.10663C313.3423,433.37012,313.05902,432.06708,312.46414,427.78955C312.32248,426.68475,312.06754,425.0418,311.9259,424.107C311.78427,423.17218,311.55765,421.13257,311.38766,419.60284C311.2177,418.04486,310.93445,415.89197,310.76447,414.78717C310.53784,413.3708,310.50952,411.84113,310.67947,409.65985L310.93445,406.54388L311.33102,407.67694C311.8126,409.09332,312.35083,409.68817,313.59723,410.31146C315.04193,410.99127,315.49518,411.50116,315.69348,412.69098C315.86343,413.7674,316.345,414.98547,317.3648,417.0251C317.70474,417.64825,318.49792,419.23462,319.17776,420.56598C319.85764,421.8974,320.4242,423.3421,320.4242,423.76703C320.4242,424.22028,320.6225,425.0418,320.87744,425.60834C321.61395,427.33636,323.3986,430.90558,323.54022,431.04724C323.6252,431.13226,323.88016,431.75543,324.07846,432.46362C324.78665,434.87146,325.6648,436.5428,327.02454,437.93085L328.35593,439.34723L328.35593,442.23663C328.35593,443.79468,328.46924,445.21106,328.61087,445.38104C328.9225,445.72095,329.4607,458.6667,329.63068,470.76257C329.71564,476.17316,329.8573,480.76224,329.91394,480.9605C329.99893,481.18713,330.19724,486.90933,330.3672,493.67963C330.53714,500.4216,330.73544,507.70178,330.82043,509.79803C330.90543,512.3192,330.82043,513.79224,330.62213,514.18884C330.25388,514.84033,330.3672,529.54236,330.87708,549.31506C331.0187,555.3772,331.24533,564.47034,331.35864,569.4844L331.55695,578.63416L329.12076,578.63416C327.78937,578.63416,326.5996,578.7758,326.51462,578.9175C326.42966,579.0874,326.00473,579.20074,325.5798,579.20074C324.72998,579.20074,323.82352,580.05054,323.82352,580.84375C323.79517,581.5519,323.3136,582.03345,321.41565,583.2799C316.79825,586.2543,315.32523,589.68195,315.32523,597.33044C315.32523,599.7383,315.1836,608.85974,315.0136,617.5847C314.73035,632.03174,314.67368,633.53314,314.1921,634.4396C313.90884,634.97784,313.4556,636.25256,313.20065,637.27234C312.37915,640.44507,312.91736,665.3168,313.88052,668.9993C314.02216,669.5376,314.4754,671.0956,314.87198,672.427C315.38187,674.1266,315.7218,676.08124,315.9201,678.80066C316.20337,682.6249,316.09006,692.02966,315.75012,697.1853C315.5235,700.0464,316.03342,706.2218,316.59998,707.9498C318.29962,713.10547,319.801,715.6832,321.7839,717.01465C322.97366,717.80786,325.63647,718.85596,326.42966,718.85596C326.71292,718.85596,326.93954,718.96924,326.93954,719.1392C326.93954,719.2809,327.13785,719.4225,327.36447,719.4225C327.59106,719.4225,327.78937,719.53577,327.78937,719.6491C327.78937,719.7908,328.6392,720.30066,329.71564,720.7822C330.76376,721.2638,332.69006,722.42523,334.02145,723.36005C335.35284,724.3232,336.7409,725.173,337.13748,725.258C337.5341,725.34296,338.0723,725.51294,338.32724,725.6829C338.61053,725.8245,339.2054,725.93787,339.65866,725.93787C340.14023,725.93787,340.59344,726.05115,340.67844,726.2211C340.76343,726.3628,341.13168,726.5044,341.49994,726.5044C341.83987,726.5044,342.94464,726.81604,343.93613,727.2126C344.92758,727.6092,346.28732,727.9208,346.96716,727.9208C348.3269,727.9208,348.97842,728.2324,350.2815,729.4788C352.43442,731.5751,354.87057,732.0,358.29822,730.8668C361.69754,729.7621,362.91562,728.91223,365.0402,726.1645C365.46512,725.6262,366.145,725.2863,367.5897,724.9464C368.69446,724.6631,369.79926,724.3515,370.0542,724.20984C370.33746,724.06824,370.81903,723.95496,371.10233,723.95496C371.4139,723.95496,371.95215,723.8416,372.3204,723.69995C372.68866,723.55835,373.87842,723.2467,374.95486,722.99176C376.05963,722.7368,377.646,722.3119,378.49582,722.0853C379.34564,721.8303,380.45044,721.5754,380.90366,721.4904C381.38525,721.4338,382.00845,721.2638,382.32004,721.1222C382.63165,720.9805,383.2832,720.81055,383.73642,720.7539C384.218,720.66895,385.29446,720.3856,386.1443,720.1307C387.6173,719.6775,388.58044,719.4225,390.4784,718.96924C391.10162,718.82764,391.44156,718.9409,392.03644,719.4791C393.19785,720.5839,393.90604,720.83887,395.63403,720.83887C397.6453,720.83887,399.88318,720.244,402.51764,719.0542C403.62244,718.57263,403.8207,718.31775,404.75552,716.4481C405.18045,715.5416,405.80365,714.66345,406.11526,714.4935C406.42685,714.3235,406.73846,714.12524,406.82346,714.0403C406.90842,713.95526,407.47498,713.72864,408.0982,713.502C409.51456,712.9921,411.86575,711.2925,413.0272,709.8761C414.18863,708.4597,415.23676,706.30676,415.91663,703.8706C416.56815,701.46277,416.59647,699.9331,416.02994,698.57336C415.74664,697.8935,415.54837,696.0239,415.43506,693.19116C415.23676,688.99866,415.26508,688.772,415.83163,687.9788C417.55963,685.656,417.6446,685.31604,417.6446,680.75525C417.6729,676.05286,417.55963,675.628,416.0016,674.2399L415.06677,673.39014L414.92514,668.14954C414.64188,655.4021,413.70706,632.2584,413.48044,631.89014C413.3388,631.6352,412.97055,626.28125,412.57394,618.68945L412.4323,615.54504L414.01868,613.9021C415.91663,611.9192,416.02994,611.49426,416.02994,606.36694C416.02994,602.6843,416.0016,602.4861,415.26508,601.3813C414.5569,600.3048,413.1405,599.31335,412.34732,599.31335C412.14905,599.31335,411.6958,599.0585,411.32755,598.77515C410.73267,598.2936,410.61935,597.897,410.44937,595.4325C410.02448,589.8519,409.48624,587.2458,408.15485,584.583C407.5883,583.4498,407.10672,582.8833,404.27396,580.05054C401.15793,576.9345,399.23163,575.8297,396.05896,575.34814C395.35077,575.2632,394.27432,574.9516,393.6511,574.66833C393.0279,574.4133,392.14975,574.0168,391.66818,573.8185C391.21494,573.6202,389.232,573.39355,387.27737,573.3086L383.73642,573.16693L383.65146,570.7308C383.53815,567.898,383.25485,566.5949,382.2634,564.527C381.4702,562.91235,378.4675,559.9379,377.61768,559.9379C377.33438,559.9379,377.05112,559.82465,376.96613,559.683C376.71118,559.2864,375.4081,559.03143,372.26373,558.86145L369.28934,558.6632L369.09106,556.87854C368.97775,555.8871,368.75113,549.2018,368.58115,542.00653C367.98627,516.5117,367.8163,512.17755,367.33475,511.44104C366.9665,510.90283,366.8815,508.52332,366.73987,496.05914C366.4849,475.0967,366.42825,472.49057,366.03168,459.48822C365.69174,447.64722,365.72006,445.15436,366.28662,442.3783C366.71152,440.2254,366.22995,435.15472,365.5501,434.36157C364.64362,433.37012,363.45386,432.9735,360.5361,432.71857C356.51358,432.35028,356.40027,432.32196,356.40027,431.3305C356.40027,430.87726,356.28696,430.424,356.117,430.33905C355.97537,430.2541,355.8337,429.85748,355.8337,429.4892C355.8337,429.12097,355.7204,428.72437,355.55045,428.6394C355.4088,428.55438,355.26718,428.21448,355.26718,427.9029C355.26718,427.61957,354.44568,426.54315,353.42587,425.52338C351.83954,423.937,349.31836,420.62268,349.31836,420.1411C349.31836,420.0561,348.97842,419.46124,348.58185,418.80975C347.90198,417.73322,347.87366,417.53497,348.15692,416.68512C348.58185,415.58038,348.3269,413.68243,347.73203,413.17255C347.5054,413.0025,347.33545,412.74762,347.33545,412.63428C347.33545,412.52094,346.74054,411.44452,346.00403,410.25476C344.8426,408.3285,344.72928,408.0169,345.01257,407.36536C345.21088,406.96875,345.3525,405.35406,345.3525,403.76776L345.3525,400.87836L344.2194,399.4903C343.5962,398.75372,343.0863,398.0456,343.0863,397.90393C343.0863,397.7906,343.34125,396.96912,343.65283,396.0343C344.70096,392.8333,344.36102,391.75684,341.69824,389.94385C340.59344,389.20734,340.25354,388.81073,340.25354,388.21588C340.25354,387.79095,340.14023,387.36603,339.97025,387.28107C339.8286,387.1961,339.68698,386.71454,339.68698,386.23297C339.68698,385.46808,337.93066,381.27557,337.4491,380.90735C336.99585,380.53912,335.2112,377.84796,334.95627,377.08313C334.7863,376.6015,334.41803,375.32684,334.1631,374.25037C333.90814,373.14557,333.59653,372.0125,333.4549,371.70087C333.31326,371.38922,333.14328,370.8227,333.08664,370.4261C332.945,369.7746,331.44363,365.29883,330.93375,364.05243C330.7921,363.74078,330.19724,362.26776,329.63068,360.79474C329.0358,359.32172,328.44092,357.9903,328.3276,357.82037C328.18597,357.67865,328.07266,357.2821,328.07266,356.97052C328.07266,356.63055,327.98767,356.26227,327.87436,356.149C327.70438,355.97906,327.2228,354.78925,326.62793,353.00464C325.8631,350.73846,325.52316,348.98212,325.52316,347.3391C325.52316,345.61115,324.92828,342.2968,324.4184,341.107C324.27673,340.79547,323.90848,339.94562,323.56854,339.20905C323.25696,338.4726,322.7754,336.9995,322.54877,335.8947C321.8689,333.0053,321.1607,331.19232,320.16925,329.94598C319.29108,328.84113,316.85492,327.0849,316.20337,327.0849C316.03342,327.0849,315.66516,326.97156,315.38187,326.80157C314.0788,326.09338,310.53784,324.53534,310.22626,324.53534C309.68802,324.53534,307.8184,323.9405,305.92044,323.14728C303.17267,322.01422,301.21805,321.13605,299.03683,320.08795C297.62045,319.40808,296.20407,318.8698,295.89246,318.8698C295.58087,318.8698,295.21262,318.75653,295.07095,318.64325C294.901,318.5016,294.1645,318.16168,293.3713,317.87836C292.60648,317.5951,290.76517,316.83026,289.29214,316.1504C287.8474,315.47052,286.601,314.904,286.51602,314.904C286.45938,314.904,286.2044,314.734,285.97778,314.5074C285.7795,314.28076,285.2696,313.8559,284.90134,313.57257C284.53308,313.2893,283.45663,312.0146,282.52182,310.79645C281.5587,309.55005,280.39725,308.07703,279.944,307.53876C279.46243,307.00055,279.00922,306.23572,278.92422,305.83917C278.75424,305.1026,279.1225,301.61835,279.6041,299.3238C280.2556,296.2644,280.4256,295.72614,280.99213,294.53644C281.33206,293.8282,281.61536,292.92175,281.61536,292.49683C281.61536,292.0719,281.757,291.6187,281.89862,291.5337C282.06857,291.44867,282.1819,291.05212,282.1819,290.65552C282.1819,289.26752,282.63513,288.8426,284.1365,288.8426C285.35458,288.8426,285.63788,288.72925,286.26108,287.96442C287.16757,286.888,287.8474,285.41492,288.1307,283.8852C288.27234,283.26202,288.58395,281.87396,288.86722,280.82587C289.32047,279.12616,289.32047,278.58795,289.03717,276.57672C288.6689,274.05554,288.30066,273.54565,286.94095,273.54565L286.1761,273.54565L286.06277,268.07843C285.94946,262.27124,285.7512,260.88324,284.78802,258.70197C284.44812,257.93713,284.16483,257.08734,284.16483,256.80402C284.16483,256.49237,284.0515,256.2658,283.9382,256.2658C283.8249,256.2658,283.56995,255.84088,283.37164,255.331C282.66345,253.3764,278.01773,248.2774,276.17645,247.42755C275.7232,247.22931,275.38327,246.9743,275.38327,246.86102C275.38327,246.71942,275.24164,246.6344,275.09998,246.6344C274.93002,246.6344,274.22183,246.35114,273.457,245.98285C272.72046,245.64294,271.55905,245.1897,270.85086,244.96307C270.14267,244.76477,269.20786,244.4815,268.7546,244.3399C267.6215,243.99994,262.72083,244.02826,262.4942,244.36823 Z M212.63759,422.18073C212.58093,422.4073,212.38264,422.4923,212.21268,422.4073C211.78777,422.1524,211.84442,417.08173,212.29765,416.62848C212.58093,416.3452,212.66592,416.82678,212.72258,419.03632C212.7509,420.56598,212.72258,421.98236,212.63759,422.18073 Z M358.7798,440.25372C359.03473,440.622,359.23303,441.4718,359.23303,442.09503C359.23303,442.74652,359.403,443.53973,359.6013,443.8797C360.0262,444.6728,360.50778,457.7602,360.6211,471.6974C360.6494,477.1363,360.79105,483.45334,360.9327,485.71957C361.32928,491.725,361.30096,511.2994,360.90436,511.69598C360.67773,511.9226,360.6494,513.62225,360.76273,517.5032C360.87604,520.50586,361.07434,528.06934,361.21597,534.30145C361.3576,540.5335,361.5559,548.8335,361.66922,552.74274L361.83917,559.8813L360.59277,560.0513C359.94122,560.1362,358.29822,560.33453,356.96683,560.4762C354.2757,560.75946,353.1426,561.09937,350.5648,562.4591C348.29858,563.62054,345.57913,566.9632,344.8426,569.4277C344.27606,571.43896,343.87946,574.49835,343.96445,576.14136C344.07776,577.9543,343.99277,578.0676,342.29312,578.0676C341.69824,578.0676,340.79175,578.1809,340.28186,578.3509C339.74362,578.49255,339.23373,578.5492,339.14874,578.46423C338.8938,578.2092,338.61053,569.71094,338.2706,553.5642C337.78903,528.0127,337.30746,514.72705,336.88254,514.21716C336.48596,513.7639,336.20267,505.91718,335.77777,483.595C335.66446,477.81616,335.46616,472.97214,335.35284,472.80215C335.23953,472.60388,335.15454,466.96667,335.12622,460.253C335.12622,452.97284,335.0129,447.98712,334.84296,447.90216C334.3614,447.59058,334.588,445.77765,335.23953,444.61615C335.8344,443.5114,335.89108,443.4831,336.99585,443.653C337.61905,443.73798,338.55386,444.07794,339.06378,444.3896C340.2252,445.04108,340.90506,445.0694,341.9532,444.44623C342.66138,444.0213,342.94464,444.0213,344.27606,444.3329C345.80576,444.70117,345.80576,444.70117,347.93033,443.59637C349.09174,442.9732,350.45148,442.40662,350.96136,442.29327C351.47125,442.18,352.60437,441.5285,353.4542,440.82025C354.92725,439.63055,355.15387,439.54553,356.68356,439.54553C358.09995,439.54553,358.3832,439.63055,358.7798,440.25372 Z M376.2013,565.7451C377.19275,566.5949,377.92926,567.95465,377.92926,568.9178C377.92926,569.45605,377.78763,569.56934,377.10776,569.56934C376.48456,569.56934,376.05963,569.8243,375.54974,570.50415C375.12485,571.04236,374.81323,571.6089,374.81323,571.75055C374.81323,572.1755,374.16168,572.4304,371.64053,572.9686L369.43097,573.4502L369.43097,569.6826L369.43097,565.91504L370.93234,565.6318C374.50162,564.89526,375.1815,564.89526,376.2013,565.7451 Z M362.09412,568.88947C362.20743,569.79596,362.29242,571.6089,362.32074,572.88367L362.3491,575.20654L361.4426,575.34814C360.9327,575.43317,360.05453,575.57477,359.51633,575.6598C358.9781,575.7731,357.4484,575.91473,356.14532,575.9997L353.7658,576.14136L352.43442,574.69666C351.6129,573.8185,350.87637,573.25195,350.50812,573.25195C349.6583,573.25195,349.71497,572.5437,350.62143,570.81573C352.0095,568.1813,353.28424,567.5864,358.09995,567.3031C359.88458,567.21814,361.49924,567.1332,361.6409,567.1615C361.81085,567.1898,362.00916,567.95465,362.09412,568.88947 Z"/> </g> </g> </g> </svg>